<?xml version="1.0" standalone="no"?><!-- Generator: Gravit.io --><svg xmlns="http://www.w3.org/2000/svg" xmlns:xlink="http://www.w3.org/1999/xlink" style="isolation:isolate" viewBox="0 0 82 128" width="82" height="128"><defs><clipPath id="_clipPath_SS89UViVPA2q2ioDAVLnwUyAY4Rz62zX"><rect width="82" height="128"/></clipPath></defs><g clip-path="url(#_clipPath_SS89UViVPA2q2ioDAVLnwUyAY4Rz62zX)"><g><path d=" M 21.681 6.667 C 32.628 8.96 39.182 17.452 39.563 28.523 L 39.563 28.523 L 37.009 28.807 C 26.117 26.458 20.517 17.477 21.681 6.667 L 21.681 6.667 Z  M 59.149 6.667 L 60.568 6.951 C 60.61 8.526 60.568 10.119 60.407 11.686 C 59.398 21.519 52.546 28.149 42.686 28.807 L 42.686 28.807 L 42.402 25.117 C 43.673 19.139 46.657 13.595 51.769 10.073 L 51.769 10.073 L 59.149 6.667 Z " fill-rule="evenodd" fill="rgb(155,201,62)"/><path d=" M 50.633 34.484 C 52.021 34.231 53.855 34.264 54.323 35.903 L 54.323 35.903 L 54.891 37.606 L 52.904 40.16 C 51.517 40.413 49.682 40.38 49.214 38.741 L 49.214 38.741 L 48.647 37.038 L 48.93 35.619 L 50.633 34.484 Z " fill="rgb(235,47,50)"/><path d=" M 50.633 34.484 C 52.021 34.231 53.855 34.264 54.323 35.903 L 54.323 35.903 L 54.891 37.606 L 52.904 40.16 C 51.517 40.413 49.682 40.38 49.214 38.741 L 49.214 38.741 L 48.647 37.038 L 48.93 35.619 L 50.633 34.484 Z " fill="rgb(235,47,50)"/><path d=" M 30.764 35.051 L 31.616 35.335 L 30.197 37.322 L 28.21 36.47 L 30.764 35.051 Z " fill="rgb(154,202,60)"/><path d=" M 38.712 35.619 C 40.083 35.452 41.768 35.598 42.402 37.038 L 42.402 37.038 L 42.118 38.457 L 40.415 37.89 L 38.144 38.457 L 36.157 37.606 L 38.712 35.619 Z " fill="rgb(154,202,60)"/><path d=" M 43.253 35.619 C 45.055 35.128 48.031 34.499 49.214 36.47 L 49.214 36.47 L 48.363 36.187 C 46.702 35.704 43.897 35.005 42.686 36.754 L 42.686 36.754 L 43.253 35.619 Z " fill="rgb(172,199,122)"/><path d=" M 30.764 36.754 L 33.887 38.741 L 32.751 41.58 C 33.653 42.081 33.236 42.65 32.467 42.999 L 32.467 42.999 L 29.913 42.715 L 29.629 41.864 L 28.777 41.58 L 27.642 39.877 L 29.061 37.322 L 30.764 36.754 Z " fill="rgb(168,87,138)"/><path d=" M 42.686 37.89 L 45.24 41.58 L 42.402 39.309 L 42.686 37.89 Z " fill="rgb(172,199,122)"/><path d=" M 61.987 37.89 L 63.406 38.741 L 64.258 40.16 L 69.651 40.444 L 67.664 42.999 C 65.333 43.303 62.556 43.001 61.703 40.444 L 61.703 40.444 L 61.987 37.89 Z " fill="rgb(154,203,57)"/><path d=" M 19.978 38.457 L 23.1 39.309 L 23.384 40.728 L 24.803 41.012 L 24.236 42.715 L 24.803 44.986 Q 22.957 48.532 17.707 48.676 Q 15.68 47.013 16.288 42.715 L 18.275 39.593 L 20.262 39.309 L 19.978 38.457 Z " fill="rgb(209,61,48)"/><path d=" M 59.149 40.16 C 61.918 40.503 64.691 41.409 66.813 43.283 L 66.813 43.283 L 66.245 44.418 L 67.38 46.121 C 67.69 51.168 62.66 54.612 58.013 54.353 L 58.013 54.353 L 54.323 51.798 L 53.756 50.663 L 54.891 48.392 L 54.323 46.689 L 55.459 44.418 L 54.891 43.283 L 55.743 41.864 L 59.149 40.16 Z " fill="rgb(225,103,138)"/><path d=" M 69.208 70.525 L 70.627 71.376 L 71.479 72.795 L 76.872 73.079 L 74.885 75.634 C 72.554 75.938 69.776 75.636 68.924 73.079 L 68.924 73.079 L 69.208 70.525 Z " fill="rgb(154,203,57)"/><path d=" M 66.37 72.795 C 69.139 73.138 71.912 74.044 74.034 75.918 L 74.034 75.918 L 73.466 77.053 L 74.601 78.756 C 74.911 83.803 69.881 87.247 65.234 86.988 L 65.234 86.988 L 61.544 84.433 L 60.977 83.298 L 62.112 81.027 L 61.544 79.324 L 62.68 77.053 L 62.112 75.918 L 62.964 74.499 L 66.37 72.795 Z " fill="rgb(225,103,138)"/><path d=" M 47.227 40.728 C 48.424 40.443 50.285 40.19 50.917 41.58 L 50.917 41.58 L 51.485 44.418 C 51.16 46.261 49.404 46.615 47.795 46.405 L 47.795 46.405 L 46.376 45.554 L 45.808 42.147 L 47.227 40.728 Z " fill="rgb(235,47,50)"/><g><path d=" M 16.265 76.592 C 17.474 77.319 18.83 78.554 18.1 80.094 L 18.1 80.094 L 17.403 81.748 L 14.224 82.356 C 13.015 81.629 11.659 80.394 12.388 78.854 L 12.388 78.854 L 13.086 77.2 L 14.236 76.321 L 16.265 76.592 Z " fill="rgb(235,47,50)"/><path d=" M 5.283 72.279 C 4.336 71.274 3.454 69.831 4.238 68.466 L 4.238 68.466 L 5.549 67.853 L 6.102 69.561 L 7.906 71.053 L 8.398 73.158 L 5.283 72.279 Z " fill="rgb(154,202,60)"/><path d=" M 9.971 72.574 C 11.649 73.394 14.3 74.886 13.887 77.148 L 13.887 77.148 L 13.435 76.373 C 12.505 74.914 10.86 72.538 8.795 73.052 L 8.795 73.052 L 9.971 72.574 Z " fill="rgb(172,199,122)"/><path d=" M 8.046 73.905 L 7.53 78.364 L 6.896 74.784 L 8.046 73.905 Z " fill="rgb(172,199,122)"/><path d=" M 9.584 79.035 C 10.672 79.611 12.237 80.649 11.794 82.11 L 11.794 82.11 L 10.347 84.618 C 8.887 85.787 7.334 84.894 6.264 83.675 L 6.264 83.675 L 5.76 82.098 L 7.581 79.165 L 9.584 79.035 Z " fill="rgb(235,47,50)"/></g><path d=" M 12.03 41.864 L 13.45 42.715 L 12.03 44.702 C 10.287 43.83 10.287 42.735 12.03 41.864 L 12.03 41.864 Z " fill="rgb(168,87,138)"/><path d=" M 71.638 42.999 L 73.057 43.85 L 73.625 44.986 C 73.41 46.276 72.202 46.547 71.07 46.405 L 71.07 46.405 L 70.219 44.418 L 71.638 42.999 Z " fill="rgb(250,178,22)"/><path d=" M 35.306 44.134 C 38.194 43.71 41.938 43.771 43.537 46.689 L 43.537 46.689 L 45.524 49.811 C 47.174 49.787 48.947 50.236 49.782 51.798 L 49.782 51.798 L 48.93 53.217 Q 45.098 50.805 38.144 51.514 Q 32.63 52.528 29.913 56.34 Q 26.01 62.088 24.52 70.248 Q 21.255 70.674 20.83 68.261 Q 18.964 65.585 19.694 60.313 Q 21.61 52.011 27.358 47.54 L 35.306 44.134 Z " fill="rgb(250,176,28)"/><path d=" M 10.895 46.405 L 11.747 46.689 C 11.893 48.207 11.735 50.036 10.327 50.947 L 10.327 50.947 L 4.934 50.663 L 4.367 48.392 L 5.218 48.108 C 5.567 49.386 6.973 49.435 8.057 49.244 L 8.057 49.244 L 9.76 46.973 L 10.895 46.405 Z " fill="rgb(153,202,57)"/><path d=" M 75.044 46.405 C 76.921 47.29 77.573 49.283 77.599 51.23 L 77.599 51.23 L 76.747 53.785 L 75.612 53.785 L 71.638 57.191 L 75.328 52.934 L 74.193 48.96 L 75.044 46.405 Z " fill="rgb(153,201,67)"/><line x1="26.79" y1="47.54" x2="24.52" y2="50.379"/><path d=" M 5.218 50.947 L 10.611 51.23 C 13.044 52.54 13.2 55.601 12.882 58.043 L 12.882 58.043 L 11.463 60.03 L 6.921 61.733 L 3.231 59.178 L 2.096 55.772 C 2.518 53.83 3.523 52.044 5.218 50.947 L 5.218 50.947 Z " fill="rgb(168,87,138)"/><path d=" M 38.144 54.92 C 39.814 54.655 42.029 54.638 42.97 56.34 L 42.97 56.34 L 43.537 60.881 C 42.835 63.223 40.167 63.247 38.144 62.868 L 38.144 62.868 L 34.454 60.313 L 35.306 57.759 L 36.157 57.475 L 37.009 55.488 L 38.144 54.92 Z " fill="rgb(168,87,138)"/><path d=" M 32.467 57.191 L 35.022 57.475 L 34.738 60.03 L 32.467 57.191 Z  M 54.607 57.191 L 55.459 57.475 C 55.744 58.672 55.997 60.533 54.607 61.165 L 54.607 61.165 L 49.214 60.881 L 48.647 59.178 L 49.498 58.894 L 51.769 60.03 L 54.607 57.191 Z " fill-rule="evenodd" fill="rgb(154,202,60)"/><path d=" M 71.07 57.759 C 73.012 58.48 73.378 60.766 73.057 62.584 C 72.697 64.623 70.464 64.827 68.8 64.571 L 68.8 64.571 L 66.245 60.881 L 67.664 58.894 L 71.07 57.759 Z " fill="rgb(209,73,134)"/><path d=" M 59.717 58.894 C 60.63 58.712 61.911 58.665 62.271 59.746 L 62.271 59.746 L 60.852 61.733 L 58.865 60.313 L 59.717 58.894 Z " fill="rgb(111,52,133)"/><path d=" M 49.498 61.165 L 54.891 61.449 L 55.175 62.3 L 56.594 63.152 L 57.73 67.126 L 55.743 70.816 C 54.462 72.177 52.345 72.176 50.633 71.951 L 50.633 71.951 L 47.511 69.964 C 46.244 68.855 46.194 66.966 46.376 65.423 L 46.376 65.423 L 49.498 61.165 Z " fill="rgb(23,96,127)"/><path d=" M 76.747 61.165 C 78.005 60.967 79.531 61.115 79.87 62.584 L 79.87 62.584 L 80.437 65.423 L 76.747 67.977 L 74.76 66.558 L 73.625 63.152 L 76.747 61.165 Z " fill="rgb(230,102,156)"/><path d=" M 14.31 72.507 L 14.308 72.507 C 14.296 72.514 14.29 72.51 14.284 72.506 Q 14.304 72.512 14.301 72.519 L 14.308 72.507 L 14.31 72.507 L 14.31 72.507 Z " fill="rgb(235,47,50)"/><path d=" M 13.166 63.436 L 15.153 64.855 L 14.301 66.842 C 12.573 67.188 10.463 65.76 12.168 63.928 C 12.436 63.64 12.794 63.498 13.166 63.436 L 13.166 63.436 Z " fill="rgb(32,121,165)"/><path d=" M 33.035 65.707 L 37.009 67.977 L 38.712 65.707 Q 40.344 66.629 39.847 69.68 Q 42.757 69.326 43.537 71.1 L 40.983 71.951 L 32.751 67.693 L 33.035 65.707 Z " fill="rgb(154,202,60)"/><path d=" M 31.332 68.545 C 34.973 68.244 39.248 68.77 41.267 72.235 L 41.267 72.235 L 42.97 76.777 L 38.712 82.17 L 31.332 85.576 L 29.345 84.724 C 26.858 81.8 26.709 77.565 27.074 73.938 L 27.074 73.938 L 29.061 69.68 L 31.332 68.545 Z " fill="rgb(225,103,138)"/><path d=" M 77.315 70.248 C 78.228 70.065 79.509 70.019 79.87 71.1 L 79.87 71.1 L 79.586 73.087 L 77.031 72.803 L 77.315 70.248 Z  M 53.472 74.79 L 55.459 75.073 L 56.027 76.209 L 55.175 77.628 C 54.262 77.811 52.981 77.857 52.62 76.777 L 52.62 76.777 L 53.472 74.79 Z " fill-rule="evenodd" fill="rgb(168,87,138)"/><path d=" M 48.363 78.196 C 49.62 77.997 51.146 78.146 51.485 79.615 L 51.485 79.615 L 53.472 82.737 Q 59.168 83.57 61.703 87.563 Q 64.329 92.033 63.406 100.052 Q 60.758 110.744 52.904 116.231 Q 48.741 121.719 38.144 120.773 L 33.887 117.65 C 33.604 114.263 36.04 114.297 38.431 113.111 C 41.237 111.72 43.024 110.755 45.469 108.796 C 49.135 105.858 52.172 102.518 52.822 97.735 C 53.66 91.57 52.4 83.934 46.943 80.183 L 46.943 80.183 L 48.363 78.196 Z " fill="rgb(250,177,30)"/><path d=" M 22.817 82.17 L 23.668 82.453 L 37.293 108 C 33.455 113.664 23.112 109.632 19.694 105.729 L 19.694 105.729 L 17.707 102.607 L 16.856 102.323 L 15.153 94.375 C 15.675 89.746 17.596 85.27 21.681 82.737 L 21.681 82.737 L 22.817 82.17 Z " fill="rgb(236,47,49)"/><path d=" M 22.089 84.581 C 18.081 89.59 15.993 95.322 18.619 101.273" fill="none"/><path d=" M 24.227 84.093 C 22.164 85.781 24.227 82.405 22.164 85.781 Q 20.1 89.157 20.1 89.157" fill="rgb(236,47,49)"/><path d=" M 21.226 99.473 L 23.852 103.411 L 29.853 105.662 L 34.167 106.037 L 35.855 106.037 L 37.206 107.894 L 36.268 109.301 L 34.205 110.426 L 31.016 110.848 L 28.015 110.426 L 24.452 109.16 L 21.357 107.237 L 19.435 105.456 L 17.794 102.595 L 16.809 102.173 L 15.168 93.921 L 16.012 90.395 L 16.762 88.144 L 18.45 85.518 L 21.357 82.986 L 22.764 82.142 L 23.702 82.517 L 23.983 83.08 L 22.576 84.956 L 20.888 89.082 L 20.513 93.443 L 21.226 99.473 Z " fill="rgb(154,203,57)"/><path d=" M 42.686 84.44 L 43.537 84.724 C 43.893 86.385 44.077 88.815 42.118 89.55 L 42.118 89.55 L 38.996 89.833 L 39.28 90.685 L 37.293 90.401 L 36.157 88.13 L 38.144 87.847 L 39.28 88.414 L 42.686 84.44 Z " fill="rgb(154,203,57)"/><path d=" M 42.686 88.982 L 46.376 90.401 L 47.227 91.82 L 48.079 92.104 L 48.647 94.375 C 46.727 96.644 46.137 99.712 46.092 102.607 L 46.092 102.607 L 44.389 103.174 L 43.253 103.174 L 40.983 103.742 L 39.563 102.89 L 38.712 100.903 L 37.293 100.052 C 35.104 99.049 34.803 96.505 35.022 94.375 L 35.022 94.375 L 37.009 90.685 L 39.563 90.401 L 39.28 89.55 C 40.325 89.825 42.034 90.155 42.686 88.982 L 42.686 88.982 Z " fill="rgb(139,74,158)"/><path d=" M 11.463 89.55 L 13.45 90.969 L 12.03 92.956 L 10.044 91.537 L 11.463 89.55 Z " fill="rgb(168,87,138)"/><path d=" M 67.096 91.82 L 69.651 92.672 L 70.219 94.943 Q 69.651 96.93 66.529 96.362 Q 65.11 95.794 65.677 93.24 L 67.096 91.82 Z " fill="rgb(139,74,158)"/><line x1="48.93" y1="104.31" x2="46.092" y2="107.716"/><path d=" M 30.197 111.69 L 32.751 113.109 C 33.097 115.302 31.1 117.628 28.848 115.876 C 27.851 115.101 27.687 112.715 29.061 112.257 L 29.061 112.257 L 30.197 111.69 Z " fill="rgb(210,73,137)"/><line x1="57.446" y1="112.257" x2="55.175" y2="115.096"/></g></g></svg>